<svg height="496pt" viewBox="0 0 496 496" width="496pt" xmlns="http://www.w3.org/2000/svg"><path d="m475.953125 147.542969c-4.25-19.230469-11.707031-37.269531-22.21875-53.757813l9.425781-18.839844-42.097656-42.097656-18.839844 9.425782c-16.488281-10.511719-34.527344-17.976563-53.765625-22.21875l-6.6875-20.054688h-59.53125l-6.6875 20.054688c-19.230469 4.242187-37.277343 11.699218-53.765625 22.21875l-18.839844-9.425782-42.097656 42.097656 9.425782 18.839844c-10.511719 16.488282-17.96875 34.527344-22.21875 53.757813l-20.054688 6.6875v37.769531h16v-26.230469l17.929688-5.976562.878906-4.601563c3.910156-20.375 11.75-39.34375 23.289062-56.359375l2.628906-3.878906-8.421874-16.847656 25.785156-25.785157 16.839844 8.421876 3.878906-2.628907c17.015625-11.539062 35.984375-19.378906 56.367187-23.296875l4.601563-.878906 5.992187-17.9375h36.46875l5.976563 17.929688 4.601562.878906c20.382813 3.917968 39.351563 11.75 56.367188 23.296875l3.878906 2.628906 16.839844-8.421875 25.785156 25.785156-8.421875 16.847656 2.628906 3.878907c11.539063 17.015625 19.378907 35.984375 23.289063 56.359375l.878906 4.601562 17.9375 5.984375v36.46875l-17.929688 5.976563-.878906 4.601562c-3.910156 20.375-11.75 39.34375-23.289062 56.359375l-2.628906 3.878907 8.421874 16.847656-25.785156 25.785156-16.839844-8.421875-3.878906 2.628906c-17.015625 11.539063-35.984375 19.378907-56.367187 23.296875l-4.601563.878906-5.992187 17.929688h-26.230469v16h37.769531l6.6875-20.054688c19.230469-4.242187 37.277344-11.699218 53.765625-22.21875l18.839844 9.425782 42.097656-42.097656-9.425781-18.839844c10.511719-16.488282 17.96875-34.527344 22.21875-53.757813l20.046875-6.6875v-59.53125zm0 0"/><path d="m312 64c66.167969 0 120 53.832031 120 120 0 63.296875-49.433594 115.902344-112.527344 119.777344l.984375 15.964844c71.519531-4.390626 127.542969-64.015626 127.542969-135.742188 0-74.992188-61.007812-136-136-136-71.503906 0-131.128906 55.839844-135.71875 127.128906l15.964844 1.03125c4.058594-62.894531 56.65625-112.160156 119.753906-112.160156zm0 0"/><path d="m312 272c-7.246094 0-14.449219-.878906-21.390625-2.617188l-3.875 15.519532c8.210937 2.058594 16.714844 3.097656 25.265625 3.097656 57.34375 0 104-46.65625 104-104s-46.65625-104-104-104-104 46.65625-104 104c0 8.96875 1.144531 17.863281 3.398438 26.441406l15.472656-4.074218c-1.902344-7.246094-2.871094-14.765626-2.871094-22.367188 0-21.382812 7.6875-41 20.414062-56.273438l45.984376 45.984376c-1.496094 3.136718-2.398438 6.59375-2.398438 10.289062s.910156 7.152344 2.40625 10.28125l-42.558594 42.566406 11.3125 11.3125 42.558594-42.566406c3.128906 1.503906 6.585938 2.40625 10.28125 2.40625s7.152344-.902344 10.28125-2.40625l45.984375 45.980469c-15.265625 12.738281-34.882813 20.425781-56.265625 20.425781zm67.585938-31.726562-45.984376-45.984376c1.496094-3.136718 2.398438-6.59375 2.398438-10.289062s-.902344-7.152344-2.40625-10.28125l45.980469-45.984375c12.738281 15.265625 20.425781 34.882813 20.425781 56.265625s-7.6875 41-20.414062 56.273438zm-11.3125-123.859376-45.984376 45.984376c-3.136718-1.496094-6.59375-2.398438-10.289062-2.398438s-7.152344.902344-10.28125 2.40625l-45.984375-45.980469c15.265625-12.738281 34.882813-20.425781 56.265625-20.425781s41 7.6875 56.273438 20.414062zm-56.273438 75.585938c-4.414062 0-8-3.59375-8-8s3.585938-8 8-8 8 3.59375 8 8-3.585938 8-8 8zm0 0"/><path d="m304 374.207031v-60.421875l-29.832031-7.640625c-2.335938-7.558593-5.359375-14.863281-9.007813-21.792969l15.6875-26.480468-42.726562-42.726563-26.480469 15.6875c-6.921875-3.648437-14.226563-6.671875-21.792969-9.007812l-7.640625-29.824219h-60.421875l-7.640625 29.832031c-7.558593 2.335938-14.863281 5.359375-21.792969 9.007813l-26.480468-15.6875-42.726563 42.726562 15.6875 26.480469c-3.648437 6.921875-6.671875 14.226563-9.007812 21.792969l-29.824219 7.640625v60.421875l29.832031 7.640625c2.335938 7.558593 5.359375 14.863281 9.007813 21.792969l-15.6875 26.480468 42.726562 42.726563 26.480469-15.6875c6.921875 3.648437 14.226563 6.671875 21.792969 9.007812l7.640625 29.824219h60.421875l7.640625-29.832031c7.558593-2.335938 14.863281-5.359375 21.792969-9.007813l26.480468 15.6875 42.726563-42.726562-15.6875-26.480469c3.648437-6.921875 6.671875-14.226563 9.007812-21.792969zm-152 9.792969c-22.089844 0-40-17.910156-40-40s17.910156-40 40-40 40 17.910156 40 40-17.910156 40-40 40zm0 0" fill="#f0bc5e"/><path d="m152 440c-52.9375 0-96-43.0625-96-96s43.0625-96 96-96 96 43.0625 96 96-43.0625 96-96 96zm0-176c-44.113281 0-80 35.886719-80 80s35.886719 80 80 80 80-35.886719 80-80-35.886719-80-80-80zm0 0"/><path d="m152 392c-26.472656 0-48-21.527344-48-48s21.527344-48 48-48 48 21.527344 48 48-21.527344 48-48 48zm0-80c-17.648438 0-32 14.351562-32 32s14.351562 32 32 32 32-14.351562 32-32-14.351562-32-32-32zm0 0"/><path d="m480 464h16v16h-16zm0 0"/><path d="m464 480h-91.3125l-16-16h-68.6875v-16h75.3125l16 16h84.6875zm0 0"/><path d="m448 416h16v16h-16zm0 0"/><path d="m432 432h-59.3125l-16-16h-68.6875v-16h75.3125l16 16h52.6875zm0 0"/><path d="m0 24h16v16h-16zm0 0"/><path d="m160 56h-59.3125l-16-16h-52.6875v-16h59.3125l16 16h52.6875zm0 0"/><path d="m32 72h16v16h-16zm0 0"/><path d="m144 104h-35.3125l-16-16h-28.6875v-16h35.3125l16 16h28.6875zm0 0"/></svg>