<svg id="Layer_5" enable-background="new 0 0 62 62" height="512" viewBox="0 0 62 62" width="512" xmlns="http://www.w3.org/2000/svg"><g><g><path d="m10 58h-6v-6h6z" fill="#f0bc5e"/></g><g><path d="m18 58h-6v-6h6z" fill="#f0bc5e"/></g><g><path d="m26 58h-6v-6h6z" fill="#f0bc5e"/></g><g><path d="m58 61h-8v-7h8z" fill="#f0bc5e"/></g><g><path d="m58 44h-8v-6h8z" fill="#f0bc5e"/></g><g><path d="m58 52h-8v-6h8z" fill="#f0bc5e"/></g><path d="m62 9c0-1.774-1.037-2.933-2.04-4.052-1.008-1.125-1.96-2.187-1.96-3.948v-1h-1c-.027 0-1.824.039-3 1.864-1.176-1.825-2.973-1.864-3-1.864h-1v1c0 1.761-.952 2.823-1.96 3.948-1.003 1.119-2.04 2.278-2.04 4.052 0 1.643.731 3.004 1.519 4h-1.519v1c0 3.164 2.112 5.842 5 6.705v13.295h-4.026c-.914-1.207-2.348-2-3.974-2v-3c0-1.654-1.346-3-3-3h-10c-1.654 0-3 1.346-3 3v3c-2.757 0-5 2.243-5 5v11h-6v-18.465l6-4v-5.535h-2v-4h2v-2h-22v2h2v4h-2v5.535l6 4v18.465h-6v14h62v-28h-5v-13.295c2.888-.863 5-3.541 5-6.705v-1h-1.519c.788-.996 1.519-2.357 1.519-4zm-14 0c0-.961.582-1.658 1.53-2.717.884-.987 1.942-2.168 2.324-3.905.548.453 1.146 1.445 1.146 3.622h2c0-2.182.6-3.174 1.146-3.625.381 1.738 1.44 2.92 2.325 3.908.947 1.059 1.529 1.756 1.529 2.717 0 1.984-1.706 3.509-2.33 4h-.854c.112-.314.184-.648.184-1 0-1.593-1.196-4-3-4s-3 2.407-3 4c0 .352.072.686.184 1h-.854c-.624-.491-2.33-2.016-2.33-4zm5 3c0-.82.68-1.956.997-2 .323.044 1.003 1.18 1.003 2 0 .552-.449 1-1 1s-1-.448-1-1zm-15 28h8v2h-8zm0 4h8v16h-8zm8-7v1h-8v-1c0-1.654 1.346-3 3-3h2c1.654 0 3 1.346 3 3zm-17-8c0-.552.449-1 1-1h10c.551 0 1 .448 1 1v3c-2.757 0-5 2.243-5 5v23h-2v-23c0-2.757-2.243-5-5-5zm3 13h-8v-2h8zm-5-8h2c1.654 0 3 1.346 3 3v1h-8v-1c0-1.654 1.346-3 3-3zm-19-4h6v2h-6zm0 4h6v2h-6zm0 4h6v2h-6zm0 4h6v2h-6zm10-22h-2v-4h2zm-10 0v-4h2v4zm4-4h2v4h-2zm-8 0h2v4h-2zm16 6v2h-18v-2zm-15.697 4h13.395l-3 2h-7.395zm3.697 20h6v2h-6zm20 14h-26v-10h26zm-4-12v-4h8v16h-2v-12zm36 12h-12v-23c0-.342-.035-.677-.101-1h12.101zm-5-26h-2v-13h2zm0-15h-2c-2.415 0-4.435-1.721-4.899-4h11.799c-.465 2.279-2.485 4-4.9 4z"/></g></svg>