<svg id="Layer_5" enable-background="new 0 0 64 64" height="512" viewBox="0 0 64 64" width="512" xmlns="http://www.w3.org/2000/svg"><g><g><path d="m17.792 49.658-5.634-9.658h-4.316l-5.634 9.658c-.79 1.355-1.208 2.901-1.208 4.47 0 4.892 3.98 8.872 8.872 8.872h.256c4.892 0 8.872-3.98 8.872-8.872 0-1.569-.418-3.115-1.208-4.47z" fill="#f0bc5e"/></g><g><path d="m14.233 51.497-1.729 1.006.104.18c.257.437.392.937.392 1.445 0 1.584-1.289 2.872-2.872 2.872h-.128v2h.128c2.686 0 4.872-2.186 4.872-4.872 0-.862-.229-1.711-.663-2.453z"/><path d="m10.619 47.842h2v2.315h-2z" transform="matrix(.864 -.504 .504 .864 -23.108 12.531)"/><path d="m53 49.54v-1.04l.399-.3c2.254-1.69 3.6-4.382 3.6-7.2s-1.346-5.51-3.601-7.2l-1.398-1.05-1.4 1.05c-2.254 1.69-3.6 4.382-3.6 7.2s1.346 5.51 3.601 7.2l.399.3v4.041c-1.063-.955-2.462-1.541-4-1.541h-4v2c0 3.309 2.691 6 6 6h2v2h-18v-2-2-1h2c3.309 0 6-2.691 6-6v-2h-4c-1.538 0-2.937.586-4 1.54v-1.04l.399-.3c2.254-1.69 3.6-4.382 3.6-7.2s-1.346-5.51-3.601-7.2l-1.398-1.05-1.4 1.05c-2.254 1.69-3.6 4.382-3.6 7.2s1.346 5.51 3.601 7.2l.399.3v4.041c-1.063-.955-2.462-1.541-4-1.541h-4v2c0 3.309 2.691 6 6 6h2v2h-8v2h38v-2h-8v-2-2-1h2c3.309 0 6-2.691 6-6v-2h-4c-1.538 0-2.937.586-4 1.54zm-16 .46h2c0 2.206-1.794 4-4 4h-2c0-2.206 1.794-4 4-4zm-8-9c0-2.192 1.047-4.285 2.8-5.601l.2-.149.2.149c1.753 1.316 2.8 3.409 2.8 5.601 0 1.831-.738 3.586-2 4.883v-4.647l.895-1.789-1.789-.895-1.106 2.212v5.119c-1.262-1.297-2-3.052-2-4.883zm0 16c-2.206 0-4-1.794-4-4h2c2.206 0 4 1.794 4 4zm20-16c0-2.192 1.047-4.285 2.8-5.601l.2-.149.2.149c1.753 1.316 2.8 3.409 2.8 5.601 0 1.831-.738 3.586-2 4.883v-4.647l.895-1.789-1.789-.895-1.106 2.212v5.119c-1.262-1.297-2-3.052-2-4.883zm0 16c-2.206 0-4-1.794-4-4h2c2.206 0 4 1.794 4 4zm6-3h-2c0-2.206 1.794-4 4-4h2c0 2.206-1.794 4-4 4z"/><path d="m46.001 27v-2h13.999v-2h3v-2h-3v-8.12c1.716-.417 2.999-1.965 2.999-3.88v-.489l-8.597-6.686c-1.366-1.063-3.438-1.065-4.807 0l-7.166 5.575-2.025-1.575c-1.366-1.063-3.438-1.065-4.807 0l-8.21 6.387-.29.288c-.734-.907-1.842-1.5-3.097-1.5h-6c-2.206 0-4 1.794-4 4 0 1.103.897 2 2 2h2v4h-2c-6.065 0-11 4.935-11 11v3h-2c-1.103 0-2 .897-2 2v2c0 1.103.897 2 2 2h14c1.103 0 2-.897 2-2v-2c0-1.103-.897-2-2-2h-2v-1c0-1.654 1.346-3 3-3h45v-2h-45c-2.757 0-5 2.243-5 5v1h-6v-3c0-4.962 4.038-9 9-9h14v4zm-29 12h-14.001v-2h14zm22.999-14h-4v-2c0-1.103.897-2 2-2s2 .897 2 2zm2 0v-2c0-2.206-1.794-4-4-4s-4 1.794-4 4v2h-2v-8h12.001v8zm11.999-2h-4v-4c0-1.103.897-2 2-2s2 .897 2 2zm2 0v-4c0-2.206-1.794-4-4-4s-4 1.794-4 4v4h-1.997v-6.119c1.715-.415 2.998-1.954 2.998-3.795v-.086h9v10zm-5.176-19.596c.67-.521 1.683-.521 2.351 0l7.788 6.057c-.175.877-.95 1.54-1.878 1.54h-12.026l-3-2.333zm-13.999 4c.67-.521 1.683-.521 2.351 0l7.788 6.057c-.175.877-.95 1.54-1.877 1.54h-14.172c-.91 0-1.674-.639-1.867-1.546zm-18.824 5.596h6c1.103 0 2 .897 2.001 2h-10.001c0-1.103.897-2 2-2zm2 4h2v4h-2zm4 4v-4h2c.906 0 1.664-.609 1.909-1.437.531.643 1.254 1.116 2.091 1.318v4.119z"/></g></g></svg>