<svg id="Layer_30" enable-background="new 0 0 496 496" height="512" viewBox="0 0 496 496" width="512" xmlns="http://www.w3.org/2000/svg"><g><g><g><path d="m344 208c-30.879 0-56-25.121-56-56s25.121-56 56-56 56 25.121 56 56-25.121 56-56 56zm0-72c-8.822 0-16 7.178-16 16s7.178 16 16 16 16-7.178 16-16-7.178-16-16-16z" fill="#f0bc5e"/></g></g><g><path d="m85.698 275.521 16.711 16.711 12.64-3.718c12.371-3.638 24.01-9.272 34.497-16.618-16.525-1.253-29.546-15.049-29.546-31.896 0-17.673 14.327-32 32-32 15.988 0 29.235 11.725 31.617 27.045 8.842-15.01 14.302-31.859 15.891-49.362l-11.986-11.986-10.163 5.081-3.593-10.778h-43.531l-3.593 10.778-10.163-5.08-30.78 30.78 5.08 10.163-10.779 3.593v43.531l10.778 3.593z" fill="#f0bc5e"/></g><g><path d="m104 368c-13.233 0-24 10.767-24 24s10.767 24 24 24 24-10.767 24-24-10.767-24-24-24zm0 32c-4.411 0-8-3.589-8-8s3.589-8 8-8 8 3.589 8 8-3.589 8-8 8z"/><path d="m368 152c0-13.233-10.767-24-24-24s-24 10.767-24 24 10.767 24 24 24 24-10.767 24-24zm-32 0c0-4.411 3.589-8 8-8s8 3.589 8 8-3.589 8-8 8-8-3.589-8-8z"/><path d="m496 152c0-83.813-68.187-152-152-152-81.156 0-147.658 63.931-151.795 144.076-12.669-5.305-26.351-8.076-40.205-8.076-57.346 0-104 46.654-104 104 0 20.031 5.568 39.064 16.159 55.672-17.364 6.991-32.34 18.477-43.695 33.652-13.388 17.893-20.464 39.161-20.464 61.508v2.497c0 56.613 46.057 102.671 102.669 102.671h2.496c22.347 0 43.616-7.076 61.509-20.464 6.909-5.17 13.048-11.095 18.356-17.647 4.571 21.739 23.892 38.111 46.97 38.111 26.468 0 48-21.532 48-48 0-7.525-1.745-14.649-4.845-20.995l91.002-65.001c8.686 8.645 20.65 13.996 33.843 13.996 26.468 0 48-21.532 48-48 0-19.629-11.848-36.534-28.764-43.964 45.819-26.21 76.764-75.575 76.764-132.036zm-144 135.758v-16.031c10.573-.699 20.778-2.765 30.433-6.038l6.132 14.803c-11.564 4.022-23.832 6.524-36.565 7.266zm-273.787 19.93 17.787-5.232v16.679l-12.054 3.545-6.154-14.859c.141-.042.279-.092.421-.133zm49.787-67.688c0-13.233 10.767-24 24-24 10.823 0 20.327 7.438 23.137 17.676-4.363 6.92-9.53 13.402-15.456 19.329-3.818 3.819-7.919 7.336-12.244 10.545-11.095-2.149-19.437-12.005-19.437-23.55zm248 10.956v-16.962c22.903-8.933 41.062-27.091 49.994-49.994h16.962c-10.259 31.65-35.306 56.697-66.956 66.956zm-166.946 51.421c-17.469 17.47-30.68 38.956-38.415 62.398-7.313-17.834-21.578-32.099-39.413-39.413 23.441-7.735 44.927-20.946 62.397-38.415 22.414-22.414 37.28-50.366 43.323-80.769 11.554 22.738 30.14 41.323 52.877 52.877-30.404 6.042-58.355 20.908-80.769 43.322zm-105.054 145.623c-30.879 0-56-25.121-56-56s25.121-56 56-56 56 25.121 56 56-25.121 56-56 56zm104-273.02v-14.98h16v14.98c0 .341-.01.679-.012 1.02h-16c.002-.34.012-.679.012-1.02zm104-121.936v16.962c-22.903 8.933-41.062 27.091-49.994 49.994h-16.962c10.259-31.65 35.306-56.697 66.956-66.956zm0 197.912c-31.65-10.259-56.697-35.306-66.956-66.956h16.962c8.933 22.903 27.091 41.062 49.994 49.994zm-105.139-58.956h16.132c-.841 7.103-2.204 14.088-4.076 20.906l-15.997-2.285c1.775-6.067 3.094-12.288 3.941-18.621zm6.839 36.324c-2.845 7.045-6.259 13.858-10.222 20.38l-13.325-8.883c2.681-4.468 5.072-9.088 7.167-13.836zm-32.64 24.664 13.351 8.901c-3.711 4.794-7.745 9.387-12.102 13.744-1.252 1.252-2.534 2.471-3.831 3.674l-9.387-13.142c.638-.611 1.279-1.22 1.904-1.845 3.604-3.604 6.958-7.39 10.065-11.332zm-24.241 23.522 9.301 13.021c-6.951 5.12-14.362 9.6-22.12 13.385v-18.074c4.435-2.518 8.717-5.299 12.819-8.332zm187.181-20.51c-5.44 0-10.783-.422-16-1.231v-32.31l-5.603-1.76c-22.441-7.049-40.048-24.655-47.097-47.097l-1.76-5.603h-32.31c-.809-5.217-1.231-10.56-1.231-16s.422-10.783 1.231-16h32.31l1.76-5.603c7.049-22.441 24.655-40.048 47.097-47.097l5.603-1.76v-32.31c5.217-.807 10.56-1.229 16-1.229s10.783.422 16 1.231v32.31l5.603 1.76c22.441 7.049 40.048 24.655 47.097 47.097l1.76 5.603h32.31c.809 5.217 1.231 10.56 1.231 16s-.422 10.783-1.231 16h-32.31l-1.76 5.603c-7.049 22.441-24.655 40.048-47.097 47.097l-5.603 1.76v32.31c-5.217.807-10.56 1.229-16 1.229zm98.956-136h-16.962c-8.932-22.903-27.091-41.062-49.994-49.994v-16.962c31.65 10.259 56.697 35.306 66.956 66.956zm20.771 40h16.031c-.742 12.734-3.244 25.001-7.266 36.565l-14.803-6.132c3.273-9.655 5.338-19.86 6.038-30.433zm0-16c-.699-10.573-2.765-20.778-6.038-30.433l14.803-6.132c4.022 11.564 6.524 23.831 7.266 36.564h-16.031zm-12.188-45.203c-4.639-9.339-10.456-17.992-17.26-25.762l11.328-11.328c8.251 9.275 15.257 19.678 20.748 30.953zm-28.575-37.076c-7.77-6.805-16.423-12.621-25.762-17.26l6.137-14.815c11.275 5.49 21.678 12.497 30.953 20.747zm-40.531-23.41c-9.655-3.273-19.86-5.339-30.433-6.038v-16.031c12.734.742 25.001 3.244 36.565 7.266zm-46.433-6.038c-10.573.699-20.778 2.765-30.433 6.038l-6.132-14.803c11.564-4.022 23.831-6.524 36.564-7.266v16.031zm-45.203 12.188c-9.339 4.639-17.992 10.456-25.762 17.26l-11.328-11.328c9.275-8.251 19.678-15.257 30.953-20.748zm-37.076 28.575c-6.805 7.77-12.621 16.423-17.26 25.762l-14.815-6.137c5.49-11.275 12.497-21.678 20.747-30.953zm-23.41 40.531c-3.273 9.655-5.339 19.86-6.038 30.433h-16.031c.742-12.734 3.244-25.001 7.266-36.565zm-102.311 195.982c-2.045.705-4.1 1.38-6.178 1.991l-9.822 2.889v-16.679l5.307-1.561c3.622-1.065 7.189-2.3 10.693-3.684zm-58.766 19.427c-3.578 1.982-6.966 4.264-10.14 6.804l-11.64-11.64c4.75-3.958 9.948-7.414 15.51-10.302zm-21.454 18.118c-2.54 3.174-4.823 6.561-6.804 10.14l-15.139-6.271c2.882-5.52 6.349-10.712 10.321-15.492zm-12.936 24.92c-1.121 3.873-1.932 7.876-2.389 11.986h-16.176c.502-6.25 1.692-12.354 3.49-18.23zm-2.389 27.986c.457 4.11 1.267 8.113 2.389 11.986l-15.179 6.287c-1.763-5.857-2.928-11.971-3.41-18.273zm26.64 48.22c3.174 2.54 6.561 4.823 10.14 6.804l-6.335 15.296c-5.567-2.888-10.783-6.361-15.566-10.339zm24.919 12.936c3.873 1.121 7.876 1.932 11.986 2.389v16.201c-6.303-.482-12.416-1.647-18.273-3.41zm27.986 2.389c4.11-.457 8.113-1.267 11.986-2.389l6.244 15.074c-5.876 1.798-11.98 2.988-18.23 3.49zm26.766-8.521c3.578-1.982 6.966-4.264 10.14-6.804l11.623 11.623c-4.78 3.972-9.972 7.439-15.492 10.321zm38.099-55.024h16.679l-5.231 17.787c-.042.142-.091.28-.133.421l-14.859-6.154zm22.946-21.307-1.561 5.307h-16.678l2.889-9.821c.611-2.078 1.286-4.134 1.991-6.179h17.043c-1.384 3.505-2.619 7.071-3.684 10.693zm11.348-26.693h-18.074c4.168-8.544 9.18-16.665 14.96-24.216l12.305 10.254c-3.369 4.447-6.439 9.113-9.191 13.962zm20.522-26.995c-.3.3-.588.61-.884.913l-12.324-10.27c.63-.654 1.253-1.314 1.896-1.956 4.89-4.89 10.076-9.375 15.513-13.449l8.893 13.34c-4.58 3.479-8.958 7.285-13.094 11.422zm26.419-20.278-8.894-13.341c7.276-4.266 14.899-7.861 22.794-10.75v17.194c-4.766 2.005-9.406 4.308-13.9 6.897zm29.9-28.889c5.251-1.242 10.59-2.191 16-2.831v16.132c-5.424.726-10.766 1.796-16 3.203zm32-3.826c.34-.002.679-.012 1.02-.012h14.98v16h-14.98c-.341 0-.679.01-1.02.012zm77.203-12.473c9.339-4.639 17.992-10.456 25.762-17.26l11.328 11.328c-9.275 8.251-19.678 15.257-30.953 20.748zm37.076-28.575c6.805-7.77 12.621-16.423 17.26-25.762l14.815 6.137c-5.49 11.275-12.497 21.678-20.747 30.953zm-282.279-78.964c13.944 0 27.676 3.318 40 9.611v13.37c0 14.305-2.711 28.191-7.877 41.082-7.313-9.857-19.011-16.063-32.123-16.063-22.056 0-40 17.944-40 40 0 14.085 7.456 26.661 18.705 33.8-5.746 2.855-11.738 5.224-17.912 7.04l-32.845 9.66c-10.44-14.823-15.948-32.167-15.948-50.5 0-48.523 39.477-88 88-88zm-126.32 281.101 15.296-6.335c1.982 3.578 4.264 6.966 6.804 10.14l-11.762 11.762c-3.978-4.784-7.45-10-10.338-15.567zm146.18 15.444-11.64-11.64c2.54-3.174 4.823-6.561 6.804-10.14l15.137 6.27c-2.887 5.563-6.343 10.76-10.301 15.51zm60.14 31.455c-17.645 0-32-14.355-32-32s14.355-32 32-32 32 14.355 32 32-14.355 32-32 32zm120.643-144.204c.764 4.657 2.196 9.092 4.202 13.199l-16.646 11.89-24.673-24.673c1.821-.125 3.65-.211 5.494-.211h22.98c2.873-.001 5.761-.071 8.643-.205zm-56.064 4.097 30.42 30.42-10.133 7.238-32.489-32.489c3.912-2.075 7.995-3.793 12.202-5.169zm-25.72 14.28 32.806 32.807-10.133 7.238-31.464-31.464c1.142-1.307 2.326-2.578 3.555-3.807 1.682-1.682 3.434-3.266 5.236-4.774zm-24.999 38.063c1.662-5.653 3.97-11.095 6.845-16.217l27.627 27.627-14.489 10.349c-6.149-6.12-13.947-10.578-22.657-12.666zm186.14-64.236c0 17.645-14.355 32-32 32s-32-14.355-32-32 14.355-32 32-32 32 14.355 32 32zm-79.279-8.233c-2.906.149-5.821.233-8.721.233h-22.98c-25.2 0-48.892 9.813-66.711 27.632-11.129 11.13-19.358 24.993-23.798 40.09l-3.695 12.563c-6.641.717-12.875 2.798-18.428 5.95l6.773-23.027c5.193-17.658 14.818-33.872 27.835-46.888 20.84-20.842 48.55-32.32 78.024-32.32h22.98c5.019 0 9.981-.251 14.877-.729-3.007 4.982-5.124 10.555-6.156 16.496z"/><path d="m240 424h-16v16h-16v16h16v16h16v-16h16v-16h-16z"/><path d="m392 304v16h-16v16h16v16h16v-16h16v-16h-16v-16z"/></g></g></svg>