<svg id="Layer_5" enable-background="new 0 0 62 54.414" height="512" viewBox="0 0 62 54.414" width="512" xmlns="http://www.w3.org/2000/svg"><g><g><g><path d="m36 52.414c-14.336 0-26-11.663-26-26s11.664-26 26-26 26 11.663 26 26-11.664 26-26 26zm0-43c-9.374 0-17 7.626-17 17s7.626 17 17 17 17-7.626 17-17-7.626-17-17-17z" fill="#f0bc5e"/></g></g><g><path d="m5.585 12.413 5.761 5.761c.233-.696.491-1.38.78-2.048l-3.711-3.711 7.589-7.577 2.429 2.428c.493-.452 1.006-.882 1.532-1.296l-3.961-3.958-.998.996-3.006-3.008-8.414 8.414 3 3zm.829-3.999 5.586-5.586 1.592 1.592-5.591 5.581z"/><path d="m26.007 50.414h-18.007v-14h4.003c-.273-.653-.518-1.321-.738-2h-3.449c-.414-1.161-1.514-2-2.816-2h-2c-1.654 0-3 1.346-3 3v16c0 1.654 1.346 3 3 3h2c1.302 0 2.402-.839 2.816-2h28.184c-3.54 0-6.915-.713-9.993-2zm-20.007 1c0 .552-.449 1-1 1h-2c-.551 0-1-.448-1-1v-16c0-.552.449-1 1-1h2c.551 0 1 .448 1 1z"/><path d="m60 36.407v15.007c0 .552-.449 1-1 1h-2c-.551 0-1-.448-1-1v-8.407c-.625.752-1.295 1.465-2 2.142v6.265c0 1.654 1.346 3 3 3h2c1.654 0 3-1.346 3-3v-25c0 3.54-.713 6.915-2 9.993z"/><path d="m36 8.414c-9.925 0-18 8.075-18 18s8.075 18 18 18 18-8.075 18-18-8.075-18-18-18zm14.861 12.106c-1.491 2.69-4.106 4.497-6.941 4.823-.196-1.455-.781-2.786-1.651-3.884 1.907-2.305 2.747-5.404 2.352-8.502 2.796 1.797 4.995 4.436 6.24 7.563zm-14.861 11.894c-3.309 0-6-2.691-6-6s2.691-6 6-6 6 2.691 6 6-2.691 6-6 6zm6.338-20.685c.851 2.961.279 6.093-1.498 8.33-1.108-.846-2.438-1.411-3.89-1.584-.282-2.979-1.883-5.779-4.352-7.69 1.097-.239 2.233-.372 3.401-.372 2.252.001 4.394.474 6.339 1.316zm-12.233-.175c2.69 1.491 4.497 4.106 4.824 6.941-1.455.196-2.785.781-3.884 1.651-2.306-1.907-5.406-2.748-8.502-2.353 1.798-2.796 4.436-4.995 7.562-6.239zm-8.79 8.522c2.961-.852 6.092-.279 8.33 1.497-.846 1.108-1.411 2.438-1.584 3.89-2.979.282-5.779 1.883-7.69 4.352-.238-1.097-.371-2.233-.371-3.401 0-2.251.473-4.393 1.315-6.338zm-.176 12.232c1.491-2.69 4.106-4.496 6.941-4.823.196 1.455.781 2.786 1.651 3.884-1.907 2.305-2.747 5.404-2.352 8.502-2.796-1.797-4.995-4.436-6.24-7.563zm8.523 8.791c-.851-2.961-.279-6.093 1.498-8.33 1.108.846 2.438 1.411 3.89 1.584.282 2.979 1.883 5.779 4.352 7.69-1.097.239-2.233.372-3.401.372-2.252-.001-4.394-.473-6.339-1.316zm12.233.176c-2.69-1.491-4.497-4.106-4.824-6.941 1.447-.195 2.771-.775 3.867-1.638 1.935 1.602 4.437 2.461 7.024 2.461.493 0 .989-.04 1.484-.103-1.797 2.787-4.432 4.979-7.551 6.221zm8.79-8.523c-2.96.852-6.092.279-8.33-1.497.846-1.108 1.411-2.438 1.584-3.89 2.979-.282 5.779-1.883 7.69-4.352.238 1.097.371 2.233.371 3.401 0 2.251-.472 4.393-1.315 6.338z"/><path d="m36 22.414c-2.206 0-4 1.794-4 4s1.794 4 4 4 4-1.794 4-4-1.794-4-4-4zm0 6c-1.103 0-2-.897-2-2s.897-2 2-2 2 .897 2 2-.897 2-2 2z"/></g></g></svg>