<svg width="496" height="496" viewBox="0 0 496 496" fill="none" xmlns="http://www.w3.org/2000/svg">
<g clip-path="url(#clip0_1_2)">
<path d="M475.953 147.543C471.703 128.312 464.246 110.273 453.734 93.7852L463.16 74.9453L421.062 32.8477L402.223 42.2734C385.734 31.7617 367.695 24.2969 348.457 20.0547L341.77 0H282.238L275.551 20.0547C256.32 24.2969 238.273 31.7539 221.785 42.2734L202.945 32.8477L160.848 74.9453L170.273 93.7852C159.762 110.273 152.305 128.312 148.055 147.543L128 154.23V192H144V165.77L161.93 159.793L162.809 155.191C166.719 134.816 174.559 115.848 186.098 98.832L188.727 94.9531L180.305 78.1055L206.09 52.3203L222.93 60.7422L226.809 58.1133C243.824 46.5742 262.793 38.7344 283.176 34.8164L287.777 33.9375L293.77 16H330.238L336.215 33.9297L340.816 34.8086C361.199 38.7266 380.168 46.5586 397.184 58.1055L401.062 60.7344L417.902 52.3125L443.688 78.0977L435.266 94.9453L437.895 98.8242C449.434 115.84 457.273 134.809 461.184 155.184L462.062 159.785L480 165.77V202.238L462.07 208.215L461.191 212.816C457.281 233.191 449.441 252.16 437.902 269.176L435.273 273.055L443.695 289.902L417.91 315.688L401.07 307.266L397.191 309.895C380.176 321.434 361.207 329.273 340.824 333.191L336.223 334.07L330.23 352H304V368H341.77L348.457 347.945C367.688 343.703 385.734 336.246 402.223 325.727L421.062 335.152L463.16 293.055L453.734 274.215C464.246 257.727 471.703 239.688 475.953 220.457L496 213.77V154.238L475.953 147.543Z" fill="white"/>
<path d="M312 64C378.168 64 432 117.832 432 184C432 247.297 382.566 299.902 319.473 303.777L320.457 319.742C391.977 315.352 448 255.727 448 184C448 109.008 386.992 48 312 48C240.496 48 180.871 103.84 176.281 175.129L192.246 176.16C196.305 113.266 248.902 64 312 64V64Z" fill="white"/>
<path d="M312 272C304.754 272 297.551 271.121 290.609 269.383L286.734 284.902C294.945 286.961 303.449 288 312 288C369.344 288 416 241.344 416 184C416 126.656 369.344 80 312 80C254.656 80 208 126.656 208 184C208 192.969 209.145 201.863 211.398 210.441L226.871 206.367C224.969 199.121 224 191.602 224 184C224 162.617 231.688 143 244.414 127.727L290.398 173.711C288.902 176.848 288 180.305 288 184C288 187.695 288.91 191.152 290.406 194.281L247.848 236.848L259.16 248.16L301.719 205.594C304.848 207.098 308.305 208 312 208C315.695 208 319.152 207.098 322.281 205.594L368.266 251.574C353 264.312 333.383 272 312 272ZM379.586 240.273L333.602 194.289C335.098 191.152 336 187.695 336 184C336 180.305 335.098 176.848 333.594 173.719L379.574 127.734C392.312 143 400 162.617 400 184C400 205.383 392.312 225 379.586 240.273ZM368.273 116.414L322.289 162.398C319.152 160.902 315.695 160 312 160C308.305 160 304.848 160.902 301.719 162.406L255.734 116.426C271 103.688 290.617 96 312 96C333.383 96 353 103.688 368.273 116.414ZM312 192C307.586 192 304 188.406 304 184C304 179.594 307.586 176 312 176C316.414 176 320 179.594 320 184C320 188.406 316.414 192 312 192Z" fill="white"/>
<path d="M304 374.207V313.785L274.168 306.145C271.832 298.586 268.809 291.281 265.16 284.352L280.848 257.871L238.121 215.145L211.641 230.832C204.719 227.184 197.414 224.16 189.848 221.824L182.207 192H121.785L114.145 221.832C106.586 224.168 99.2813 227.191 92.3516 230.84L65.8711 215.152L23.1445 257.879L38.832 284.359C35.1836 291.281 32.1602 298.586 29.8242 306.152L0 313.793V374.215L29.832 381.855C32.168 389.414 35.1914 396.719 38.8398 403.648L23.1523 430.129L65.8789 472.855L92.3594 457.168C99.2812 460.816 106.586 463.84 114.152 466.176L121.793 496H182.215L189.855 466.168C197.414 463.832 204.719 460.809 211.648 457.16L238.129 472.848L280.855 430.121L265.168 403.641C268.816 396.719 271.84 389.414 274.176 381.848L304 374.207ZM152 384C129.91 384 112 366.09 112 344C112 321.91 129.91 304 152 304C174.09 304 192 321.91 192 344C192 366.09 174.09 384 152 384Z" fill="#F0BC5E"/>
<path d="M152 440C99.0625 440 56 396.938 56 344C56 291.062 99.0625 248 152 248C204.938 248 248 291.062 248 344C248 396.938 204.938 440 152 440ZM152 264C107.887 264 72 299.887 72 344C72 388.113 107.887 424 152 424C196.113 424 232 388.113 232 344C232 299.887 196.113 264 152 264Z" fill="white"/>
<path d="M152 392C125.527 392 104 370.473 104 344C104 317.527 125.527 296 152 296C178.473 296 200 317.527 200 344C200 370.473 178.473 392 152 392ZM152 312C134.352 312 120 326.352 120 344C120 361.648 134.352 376 152 376C169.648 376 184 361.648 184 344C184 326.352 169.648 312 152 312Z" fill="white"/>
<path d="M480 464H496V480H480V464Z" fill="white"/>
<path d="M464 480H372.688L356.688 464H288V448H363.312L379.312 464H464V480Z" fill="white"/>
<path d="M448 416H464V432H448V416Z" fill="white"/>
<path d="M432 432H372.688L356.688 416H288V400H363.312L379.312 416H432V432Z" fill="white"/>
<path d="M0 24H16V40H0V24Z" fill="white"/>
<path d="M160 56H100.688L84.6875 40H32V24H91.3125L107.312 40H160V56Z" fill="white"/>
<path d="M32 72H48V88H32V72Z" fill="white"/>
<path d="M144 104H108.688L92.6875 88H64V72H99.3125L115.312 88H144V104Z" fill="white"/>
</g>
<defs>
<clipPath id="clip0_1_2">
<rect width="496" height="496" fill="white"/>
</clipPath>
</defs>
</svg>
