<svg width="496" height="496" viewBox="0 0 496 496" fill="none" xmlns="http://www.w3.org/2000/svg">
<path d="M464 305.472V296C464 282.768 453.232 272 440 272H350.528C347.216 262.712 338.416 256 328 256V155.896C328 135.816 317.168 117.168 299.72 107.24L146.368 19.872C139.408 8.048 126.688 0 112 0C90.04 0 72.176 17.808 72.024 39.736H72.008L64.24 272.784C45.888 276.408 32 292.6 32 312C32 320.592 34.784 328.52 39.416 335.048L16.656 361.6C5.912 374.136 0 390.136 0 406.648C0 425.136 7.2 442.512 20.272 455.592L44.28 479.608C54.864 490.176 68.928 496 83.88 496H144H152H168V480H152V436.16L124.52 414.176C116.176 407.504 110.936 397.976 109.752 387.352L104.016 335.72C108.968 329.072 112 320.912 112 312C112 299.6 106.208 288.64 97.32 281.296L134.512 73.024C135.92 72.056 137.176 70.904 138.456 69.768L220.536 151.848C217.72 156.608 216 162.088 216 168C216 182.864 226.232 195.288 240 198.864V256H237.12C225.712 256 215.816 264.12 213.592 275.296L192.16 382.432L192 408H208V384.792L229.272 278.432C230.016 274.704 233.312 272 237.12 272H328C332.416 272 336 275.592 336 280V392H352V320H368V304H352V288H440C444.416 288 448 291.592 448 296V304H384V320H456C460.416 320 464 323.592 464 328V408H480V328C480 317.584 473.288 308.784 464 305.472ZM112 16C125.232 16 136 26.768 136 40C136 53.232 125.232 64 112 64C98.768 64 88 53.232 88 40C88 26.768 98.768 16 112 16ZM72 288C85.232 288 96 298.768 96 312C96 325.232 85.232 336 72 336C58.768 336 48 325.232 48 312C48 298.768 58.768 288 72 288ZM114.52 426.664L136 443.84V448H120V464H136V480H83.88C73.2 480 63.152 475.84 55.592 468.288L31.584 444.28C21.536 434.216 16 420.856 16 406.648C16 393.952 20.544 381.656 28.816 372.016L51.144 345.968C57.232 349.72 64.336 352 72 352C78.208 352 84.024 350.456 89.272 347.92L93.848 389.12C95.504 403.992 102.84 417.32 114.52 426.664ZM82.456 273.56C81.704 273.352 81.008 273.032 80.24 272.872L86.968 70.944C93.848 76.52 102.48 80 112 80C113.752 80 115.416 79.704 117.112 79.48L82.456 273.56ZM232 168C232 159.176 239.176 152 248 152C256.824 152 264 159.176 264 168C264 176.824 256.824 184 248 184C239.176 184 232 176.824 232 168ZM256 198.864C269.768 195.288 280 182.864 280 168C280 150.352 265.648 136 248 136C242.08 136 236.608 137.728 231.848 140.536L148.152 56.84C150.36 52.112 151.664 46.92 151.856 41.416L291.792 121.144C304.256 128.24 312 141.552 312 155.896V256H256V198.864Z" fill="white"/>
<path d="M328 288H241.448L232.16 334.432L232 352H328V288ZM312 336H248.16L254.56 304H312V336Z" fill="white"/>
<path d="M448 336H416V352H448V336Z" fill="white"/>
<path d="M440 496H232C201.128 496 176 470.872 176 440C176 409.128 201.128 384 232 384H440C470.872 384 496 409.128 496 440C496 470.872 470.872 496 440 496Z" fill="#FFA64D"/>
<path d="M432 408C422.392 408 413.872 412.336 408 419.056C402.128 412.336 393.608 408 384 408C374.392 408 365.872 412.336 360 419.056C354.128 412.336 345.608 408 336 408C326.392 408 317.872 412.336 312 419.056C306.128 412.336 297.608 408 288 408C278.392 408 269.872 412.336 264 419.056C258.128 412.336 249.608 408 240 408C222.352 408 208 422.352 208 440C208 457.648 222.352 472 240 472C249.608 472 258.128 467.664 264 460.944C269.872 467.664 278.392 472 288 472C297.608 472 306.128 467.664 312 460.944C317.872 467.664 326.392 472 336 472C345.608 472 354.128 467.664 360 460.944C365.872 467.664 374.392 472 384 472C393.608 472 402.128 467.664 408 460.944C413.872 467.664 422.392 472 432 472C449.648 472 464 457.648 464 440C464 422.352 449.648 408 432 408ZM240 456C231.176 456 224 448.824 224 440C224 431.176 231.176 424 240 424C248.824 424 256 431.176 256 440C256 448.824 248.824 456 240 456ZM288 456C279.176 456 272 448.824 272 440C272 431.176 279.176 424 288 424C296.824 424 304 431.176 304 440C304 448.824 296.824 456 288 456ZM336 456C327.176 456 320 448.824 320 440C320 431.176 327.176 424 336 424C344.824 424 352 431.176 352 440C352 448.824 344.824 456 336 456ZM384 456C375.176 456 368 448.824 368 440C368 431.176 375.176 424 384 424C392.824 424 400 431.176 400 440C400 448.824 392.824 456 384 456ZM432 456C423.176 456 416 448.824 416 440C416 431.176 423.176 424 432 424C440.824 424 448 431.176 448 440C448 448.824 440.824 456 432 456Z" fill="white"/>
<path d="M400 336H368V352H400V336Z" fill="white"/>
</svg>
