<svg width="512" height="512" viewBox="0 0 512 512" fill="none" xmlns="http://www.w3.org/2000/svg">
<path d="M82.5806 478.968H33.0322V429.419H82.5806V478.968Z" fill="#F0BC5E"/>
<path d="M148.645 478.968H99.0967V429.419H148.645V478.968Z" fill="#F0BC5E"/>
<path d="M214.71 478.968H165.161V429.419H214.71V478.968Z" fill="#F0BC5E"/>
<path d="M478.968 503.742H412.903V445.935H478.968V503.742Z" fill="#F0BC5E"/>
<path d="M478.968 363.355H412.903V313.806H478.968V363.355Z" fill="#F0BC5E"/>
<path d="M478.968 429.419H412.903V379.871H478.968V429.419Z" fill="#F0BC5E"/>
<path d="M512 74.3226C512 59.6728 503.436 50.1017 495.154 40.8609C486.829 31.5706 478.968 22.8005 478.968 8.25806V0H470.71C470.487 0 455.647 0.322064 445.935 15.393C436.224 0.322064 421.384 0 421.161 0H412.903V8.25806C412.903 22.8005 405.042 31.5706 396.717 40.8609C388.435 50.1017 379.871 59.6728 379.871 74.3226C379.871 87.8906 385.908 99.1298 392.415 107.355H379.871V115.613C379.871 141.741 397.312 163.857 421.161 170.983V280.774H387.914C380.366 270.807 368.524 264.258 355.097 264.258V239.484C355.097 225.825 343.981 214.71 330.323 214.71H247.742C234.083 214.71 222.968 225.825 222.968 239.484V264.258C200.2 264.258 181.677 282.781 181.677 305.548V396.387H132.129V243.902L181.677 210.87V165.161H165.161V132.129H181.677V115.613H0V132.129H16.5161V165.161H0V210.87L49.5484 243.902V396.387H0V512H512V280.774H470.71V170.983C494.559 163.857 512 141.741 512 115.613V107.355H499.456C505.963 99.1298 512 87.8906 512 74.3226V74.3226ZM396.387 74.3226C396.387 66.3866 401.193 60.6307 409.022 51.8854C416.322 43.7347 425.059 33.9819 428.214 19.6377C432.739 23.3786 437.677 31.5706 437.677 49.5484H454.194C454.194 31.5293 459.148 23.3373 463.657 19.6129C466.804 33.9654 475.549 43.7265 482.857 51.8854C490.678 60.6307 495.484 66.3866 495.484 74.3226C495.484 90.7066 481.396 103.3 476.243 107.355H469.19C470.115 104.762 470.71 102.004 470.71 99.0968C470.71 85.9417 460.833 66.0645 445.935 66.0645C431.038 66.0645 421.161 85.9417 421.161 99.0968C421.161 102.004 421.756 104.762 422.681 107.355H415.628C410.475 103.3 396.387 90.7066 396.387 74.3226ZM437.677 99.0968C437.677 92.3252 443.293 82.944 445.911 82.5806C448.578 82.944 454.194 92.3252 454.194 99.0968C454.194 103.655 450.486 107.355 445.935 107.355C441.385 107.355 437.677 103.655 437.677 99.0968ZM313.806 330.323H379.871V346.839H313.806V330.323ZM313.806 363.355H379.871V495.484H313.806V363.355ZM379.871 305.548V313.806H313.806V305.548C313.806 291.89 324.922 280.774 338.581 280.774H355.097C368.756 280.774 379.871 291.89 379.871 305.548ZM239.484 239.484C239.484 234.925 243.192 231.226 247.742 231.226H330.323C334.873 231.226 338.581 234.925 338.581 239.484V264.258C315.813 264.258 297.29 282.781 297.29 305.548V495.484H280.774V305.548C280.774 282.781 262.251 264.258 239.484 264.258V239.484ZM264.258 346.839H198.194V330.323H264.258V346.839ZM222.968 280.774H239.484C253.143 280.774 264.258 291.89 264.258 305.548V313.806H198.194V305.548C198.194 291.89 209.309 280.774 222.968 280.774ZM66.0645 247.742H115.613V264.258H66.0645V247.742ZM66.0645 280.774H115.613V297.29H66.0645V280.774ZM66.0645 313.806H115.613V330.323H66.0645V313.806ZM66.0645 346.839H115.613V363.355H66.0645V346.839ZM148.645 165.161H132.129V132.129H148.645V165.161ZM66.0645 165.161V132.129H82.5806V165.161H66.0645ZM99.0968 132.129H115.613V165.161H99.0968V132.129ZM33.0323 132.129H49.5484V165.161H33.0323V132.129ZM165.161 181.677V198.194H16.5161V181.677H165.161ZM35.5345 214.71H146.151L121.377 231.226H60.3086L35.5345 214.71ZM66.0645 379.871H115.613V396.387H66.0645V379.871ZM231.226 495.484H16.5161V412.903H231.226V495.484ZM198.194 396.387V363.355H264.258V495.484H247.742V396.387H198.194ZM495.484 495.484H396.387V305.548C396.387 302.724 396.098 299.958 395.553 297.29H495.484V495.484ZM454.194 280.774H437.677V173.419H454.194V280.774ZM454.194 156.903H437.677C417.734 156.903 401.053 142.691 397.221 123.871H494.658C490.818 142.691 474.137 156.903 454.194 156.903Z" fill="white"/>
</svg>
