<svg width="512" height="512" viewBox="0 0 512 512" fill="none" xmlns="http://www.w3.org/2000/svg">
<path d="M142.336 397.264L97.264 320H62.736L17.664 397.264C11.344 408.104 8 420.472 8 433.024C8 472.16 39.84 504 78.976 504H81.024C120.16 504 152 472.16 152 433.024C152 420.472 148.656 408.104 142.336 397.264Z" fill="#F0BC5E"/>
<path d="M113.864 411.976L100.032 420.024L100.864 421.464C102.92 424.96 104 428.96 104 433.024C104 445.696 93.688 456 81.024 456H80V472H81.024C102.512 472 120 454.512 120 433.024C120 426.128 118.168 419.336 114.696 413.4L113.864 411.976Z" fill="white"/>
<path d="M81.4335 388.116L95.2539 380.054L104.586 396.051L90.7652 404.113L81.4335 388.116Z" fill="white"/>
<path d="M424 396.32V388L427.192 385.6C445.224 372.08 455.992 350.544 455.992 328C455.992 305.456 445.224 283.92 427.184 270.4L416 262L404.8 270.4C386.768 283.92 376 305.456 376 328C376 350.544 386.768 372.08 404.808 385.6L408 388V420.328C399.496 412.688 388.304 408 376 408H344V424C344 450.472 365.528 472 392 472H408V488H264V472V456V448H280C306.472 448 328 426.472 328 400V384H296C283.696 384 272.504 388.688 264 396.32V388L267.192 385.6C285.224 372.08 295.992 350.544 295.992 328C295.992 305.456 285.224 283.92 267.184 270.4L256 262L244.8 270.4C226.768 283.92 216 305.456 216 328C216 350.544 226.768 372.08 244.808 385.6L248 388V420.328C239.496 412.688 228.304 408 216 408H184V424C184 450.472 205.528 472 232 472H248V488H184V504H488V488H424V472V456V448H440C466.472 448 488 426.472 488 400V384H456C443.696 384 432.504 388.688 424 396.32ZM296 400H312C312 417.648 297.648 432 280 432H264C264 414.352 278.352 400 296 400ZM232 328C232 310.464 240.376 293.72 254.4 283.192L256 282L257.6 283.192C271.624 293.72 280 310.464 280 328C280 342.648 274.096 356.688 264 367.064V329.888L271.16 315.576L256.848 308.416L248 326.112V367.064C237.904 356.688 232 342.648 232 328ZM232 456C214.352 456 200 441.648 200 424H216C233.648 424 248 438.352 248 456H232ZM392 328C392 310.464 400.376 293.72 414.4 283.192L416 282L417.6 283.192C431.624 293.72 440 310.464 440 328C440 342.648 434.096 356.688 424 367.064V329.888L431.16 315.576L416.848 308.416L408 326.112V367.064C397.904 356.688 392 342.648 392 328ZM392 456C374.352 456 360 441.648 360 424H376C393.648 424 408 438.352 408 456H392ZM440 432H424C424 414.352 438.352 400 456 400H472C472 417.648 457.648 432 440 432Z" fill="white"/>
<path d="M368.008 216V200H480V184H504V168H480V103.04C493.728 99.704 503.992 87.32 503.992 72V68.088L435.216 14.6C424.288 6.096 407.712 6.08 396.76 14.6L339.432 59.2L323.232 46.6C312.304 38.096 295.728 38.08 284.776 46.6L219.096 97.696L216.776 100C210.904 92.744 202.04 88 192 88H144C126.352 88 112 102.352 112 120C112 128.824 119.176 136 128 136H144V168H128C79.48 168 40 207.48 40 256V280H24C15.176 280 8 287.176 8 296V312C8 320.824 15.176 328 24 328H136C144.824 328 152 320.824 152 312V296C152 287.176 144.824 280 136 280H120V272C120 258.768 130.768 248 144 248H504V232H144C121.944 232 104 249.944 104 272V280H56V256C56 216.304 88.304 184 128 184H240V216H368.008ZM136.008 312H24V296H136L136.008 312ZM320 200H288V184C288 175.176 295.176 168 304 168C312.824 168 320 175.176 320 184V200ZM336 200V184C336 166.352 321.648 152 304 152C286.352 152 272 166.352 272 184V200H256V136H352.008V200H336ZM431.992 184H399.992V152C399.992 143.176 407.168 136 415.992 136C424.816 136 431.992 143.176 431.992 152V184ZM447.992 184V152C447.992 134.352 433.64 120 415.992 120C398.344 120 383.992 134.352 383.992 152V184H368.016V135.048C381.736 131.728 392 119.416 392 104.688V104H464V184H447.992ZM406.584 27.232C411.944 23.064 420.048 23.064 425.392 27.232L487.696 75.688C486.296 82.704 480.096 88.008 472.672 88.008H376.464L352.464 69.344L406.584 27.232ZM294.592 59.232C299.952 55.064 308.056 55.064 313.4 59.232L375.704 107.688C374.304 114.704 368.104 120.008 360.688 120.008H247.312C240.032 120.008 233.92 114.896 232.376 107.64L294.592 59.232ZM144 104H192C200.824 104 208 111.176 208.008 120H128C128 111.176 135.176 104 144 104V104ZM160 136H176V168H160V136ZM192 168V136H208C215.248 136 221.312 131.128 223.272 124.504C227.52 129.648 233.304 133.432 240 135.048V168H192Z" fill="white"/>
</svg>
