<svg width="512" height="512" viewBox="0 0 512 512" fill="none" xmlns="http://www.w3.org/2000/svg">
<path d="M355.097 214.71C323.222 214.71 297.29 188.778 297.29 156.903C297.29 125.028 323.222 99.0968 355.097 99.0968C386.972 99.0968 412.903 125.028 412.903 156.903C412.903 188.778 386.972 214.71 355.097 214.71ZM355.097 140.387C345.99 140.387 338.581 147.797 338.581 156.903C338.581 166.01 345.99 173.419 355.097 173.419C364.203 173.419 371.613 166.01 371.613 156.903C371.613 147.797 364.203 140.387 355.097 140.387Z" fill="#F0BC5E"/>
<path d="M88.4625 284.409L105.713 301.659L118.76 297.821C131.53 294.066 143.545 288.25 154.37 280.667C137.312 279.373 123.871 265.132 123.871 247.742C123.871 229.499 138.66 214.71 156.903 214.71C173.407 214.71 187.081 226.813 189.54 242.627C198.667 227.133 204.303 209.74 205.944 191.673L193.571 179.3L183.08 184.545L179.371 173.419H134.436L130.727 184.545L120.236 179.301L88.4635 211.074L93.7074 221.565L82.5807 225.274V270.209L93.7063 273.918L88.4625 284.409Z" fill="#F0BC5E"/>
<path d="M107.355 379.871C93.695 379.871 82.5807 390.985 82.5807 404.645C82.5807 418.305 93.695 429.419 107.355 429.419C121.015 429.419 132.129 418.305 132.129 404.645C132.129 390.985 121.015 379.871 107.355 379.871ZM107.355 412.903C102.802 412.903 99.0968 409.198 99.0968 404.645C99.0968 400.092 102.802 396.387 107.355 396.387C111.908 396.387 115.613 400.092 115.613 404.645C115.613 409.198 111.908 412.903 107.355 412.903Z" fill="white"/>
<path d="M379.871 156.903C379.871 143.243 368.757 132.129 355.097 132.129C341.437 132.129 330.323 143.243 330.323 156.903C330.323 170.563 341.437 181.677 355.097 181.677C368.757 181.677 379.871 170.563 379.871 156.903ZM346.839 156.903C346.839 152.35 350.543 148.645 355.097 148.645C359.65 148.645 363.355 152.35 363.355 156.903C363.355 161.457 359.65 165.161 355.097 165.161C350.543 165.161 346.839 161.457 346.839 156.903Z" fill="white"/>
<path d="M512 156.903C512 70.3866 441.613 0 355.097 0C271.323 0 202.676 65.9933 198.405 148.724C185.327 143.247 171.204 140.387 156.903 140.387C97.7074 140.387 49.5484 188.546 49.5484 247.742C49.5484 268.419 55.296 288.066 66.2286 305.21C48.3045 312.426 32.8454 324.283 21.1241 339.947C7.30426 358.418 0 380.372 0 403.439V406.017C0 464.456 47.5427 512 105.981 512H108.557C131.625 512 153.58 504.696 172.051 490.876C179.182 485.539 185.519 479.423 190.999 472.66C195.717 495.1 215.661 512 239.484 512C266.806 512 289.032 489.773 289.032 462.452C289.032 454.684 287.231 447.33 284.031 440.779L377.969 373.682C386.935 382.605 399.285 388.129 412.903 388.129C440.225 388.129 462.452 365.902 462.452 338.581C462.452 318.318 450.221 300.868 432.76 293.198C480.057 266.143 512 215.186 512 156.903ZM363.355 297.041V280.492C374.269 279.771 384.803 277.638 394.77 274.26L401.099 289.54C389.162 293.692 376.499 296.275 363.355 297.041ZM80.736 317.613L99.0968 312.213V329.43L86.6539 333.089L80.3014 317.751C80.447 317.707 80.5894 317.656 80.736 317.613V317.613ZM132.129 247.742C132.129 234.082 143.243 222.968 156.903 222.968C168.075 222.968 177.886 230.646 180.787 241.214C176.283 248.357 170.949 255.048 164.832 261.166C160.891 265.109 156.658 268.739 152.193 272.052C140.74 269.833 132.129 259.659 132.129 247.742ZM388.129 259.051V241.542C411.771 232.321 430.516 213.577 439.736 189.935H457.245C446.655 222.606 420.8 248.461 388.129 259.051V259.051ZM215.798 312.131C197.765 330.165 184.128 352.344 176.143 376.542C168.595 358.133 153.869 343.407 135.459 335.858C159.656 327.873 181.835 314.236 199.869 296.203C223.006 273.066 238.351 244.213 244.589 212.829C256.516 236.3 275.702 255.485 299.172 267.412C267.787 273.649 238.935 288.994 215.798 312.131V312.131ZM107.355 462.452C75.4797 462.452 49.5484 436.52 49.5484 404.645C49.5484 372.77 75.4797 346.839 107.355 346.839C139.23 346.839 165.161 372.77 165.161 404.645C165.161 436.52 139.23 462.452 107.355 462.452ZM214.71 180.625V165.161H231.226V180.625C231.226 180.977 231.215 181.325 231.213 181.677H214.697C214.699 181.326 214.71 180.977 214.71 180.625ZM322.065 54.7551V72.2643C298.423 81.4854 279.678 100.229 270.458 123.871H252.949C263.539 91.2 289.394 65.345 322.065 54.7551ZM322.065 259.051C289.394 248.461 263.539 222.606 252.949 189.935H270.458C279.679 213.577 298.423 232.322 322.065 241.542V259.051ZM213.534 198.194H230.186C229.318 205.526 227.911 212.736 225.979 219.774L209.466 217.415C211.298 211.153 212.66 204.731 213.534 198.194V198.194ZM220.594 235.689C217.657 242.962 214.133 249.994 210.042 256.727L196.287 247.557C199.054 242.945 201.523 238.176 203.685 233.275L220.594 235.689ZM186.901 261.149L200.682 270.337C196.852 275.286 192.687 280.027 188.19 284.524C186.898 285.817 185.574 287.075 184.235 288.317L174.546 274.751C175.204 274.12 175.866 273.492 176.511 272.846C180.231 269.126 183.693 265.218 186.901 261.149V261.149ZM161.878 285.43L171.479 298.871C164.303 304.156 156.653 308.78 148.645 312.687V294.03C153.223 291.431 157.643 288.561 161.878 285.43V285.43ZM355.097 264.258C349.481 264.258 343.966 263.822 338.581 262.987V229.635L332.797 227.818C309.632 220.542 291.457 202.368 284.181 179.202L282.364 173.418H249.012C248.177 168.033 247.741 162.518 247.741 156.902C247.741 151.287 248.177 145.771 249.012 140.386H282.364L284.181 134.602C291.457 111.437 309.631 93.2625 332.797 85.9861L338.581 84.1693V50.817C343.966 49.984 349.481 49.5484 355.097 49.5484C360.712 49.5484 366.228 49.984 371.613 50.8191V84.1714L377.397 85.9881C400.562 93.2645 418.737 111.438 426.013 134.604L427.83 140.388H461.182C462.017 145.773 462.453 151.289 462.453 156.904C462.453 162.52 462.017 168.035 461.182 173.42H427.83L426.013 179.204C418.737 202.369 400.563 220.544 377.397 227.82L371.613 229.637V262.989C366.228 263.822 360.712 264.258 355.097 264.258ZM457.245 123.871H439.736C430.516 100.229 411.771 81.4844 388.129 72.2643V54.7551C420.8 65.345 446.655 91.2 457.245 123.871ZM478.686 165.161H495.234C494.468 178.306 491.885 190.969 487.734 202.906L472.453 196.576C475.832 186.61 477.963 176.075 478.686 165.161ZM478.686 148.645C477.964 137.731 475.832 127.197 472.453 117.23L487.734 110.901C491.885 122.838 494.468 135.5 495.234 148.644H478.686V148.645ZM466.105 101.984C461.316 92.3437 455.311 83.4116 448.288 75.391L459.981 63.6975C468.499 73.2717 475.731 84.0103 481.399 95.649L466.105 101.984ZM436.608 63.712C428.587 56.6875 419.655 50.6839 410.015 45.8952L416.35 30.6023C427.989 36.2694 438.727 43.5025 448.301 52.0186L436.608 63.712ZM394.77 39.5468C384.803 36.1683 374.269 34.0356 363.355 33.3141V16.7659C376.5 17.5319 389.162 20.1146 401.099 24.2663L394.77 39.5468ZM346.839 33.3141C335.925 34.0356 325.39 36.1683 315.424 39.5468L309.094 24.2663C321.031 20.1146 333.694 17.5319 346.838 16.7659V33.3141H346.839ZM300.178 45.8952C290.537 50.6839 281.605 56.6885 273.585 63.712L261.891 52.0186C271.465 43.5014 282.204 36.2694 293.843 30.6013L300.178 45.8952ZM261.906 75.392C254.881 83.4126 248.877 92.3448 244.089 101.985L228.796 95.6501C234.463 84.0114 241.696 73.2728 250.212 63.6986L261.906 75.392ZM237.74 117.23C234.362 127.197 232.229 137.731 231.508 148.645H214.959C215.725 135.5 218.308 122.838 222.46 110.901L237.74 117.23ZM132.129 319.534C130.018 320.262 127.897 320.959 125.752 321.59L115.613 324.572V307.355L121.091 305.743C124.83 304.644 128.512 303.369 132.129 301.941V319.534ZM71.4674 339.588C67.7739 341.634 64.2766 343.99 61.0003 346.612L48.9848 334.596C53.888 330.51 59.2537 326.943 64.9951 323.962L71.4674 339.588ZM49.3213 358.291C46.6994 361.567 44.3427 365.063 42.2978 368.758L26.6705 362.284C29.6454 356.586 33.2243 351.227 37.3244 346.293L49.3213 358.291ZM35.968 384.014C34.8108 388.012 33.9737 392.145 33.5019 396.387H16.8041C17.3223 389.935 18.5507 383.635 20.4067 377.569L35.968 384.014ZM33.5019 412.903C33.9737 417.146 34.8098 421.278 35.968 425.276L20.2994 431.766C18.4795 425.72 17.2769 419.409 16.7794 412.903H33.5019ZM61.0013 462.679C64.2777 465.301 67.7739 467.657 71.4684 469.702L64.929 485.492C59.1825 482.51 53.7982 478.925 48.8609 474.819L61.0013 462.679ZM86.7241 476.032C90.7221 477.189 94.8542 478.026 99.0968 478.498V495.222C92.5904 494.724 86.2803 493.522 80.2343 491.702L86.7241 476.032ZM115.613 478.498C119.855 478.026 123.988 477.19 127.986 476.032L134.431 491.592C128.365 493.448 122.065 494.677 115.613 495.195V478.498ZM143.242 469.702C146.936 467.656 150.433 465.301 153.709 462.679L165.707 474.677C160.773 478.777 155.414 482.356 149.716 485.331L143.242 469.702ZM182.57 412.903H199.787L194.388 431.264C194.344 431.411 194.294 431.553 194.25 431.699L178.912 425.346L182.57 412.903ZM206.257 390.909L204.645 396.387H187.429L190.411 386.249C191.042 384.104 191.739 381.982 192.467 379.871H210.059C208.631 383.489 207.356 387.17 206.257 390.909V390.909ZM217.971 363.355H199.314C203.616 354.535 208.79 346.152 214.756 338.358L227.458 348.942C223.98 353.533 220.811 358.349 217.971 363.355ZM239.155 335.489C238.845 335.799 238.548 336.119 238.242 336.431L225.521 325.83C226.171 325.155 226.814 324.474 227.478 323.811C232.525 318.763 237.879 314.134 243.491 309.928L252.671 323.699C247.943 327.29 243.424 331.219 239.155 335.489ZM266.426 314.557L257.245 300.786C264.756 296.382 272.625 292.671 280.774 289.689V307.437C275.854 309.507 271.065 311.884 266.426 314.557ZM297.29 284.736C302.711 283.454 308.222 282.474 313.806 281.814V298.466C308.207 299.215 302.693 300.32 297.29 301.772V284.736ZM330.323 280.787C330.674 280.785 331.023 280.774 331.375 280.774H346.839V297.29H331.375C331.023 297.29 330.675 297.301 330.323 297.303V280.787ZM410.016 267.911C419.656 263.123 428.588 257.118 436.609 250.094L448.302 261.788C438.728 270.305 427.99 277.537 416.351 283.205L410.016 267.911ZM448.288 238.414C455.312 230.394 461.316 221.462 466.105 211.821L481.398 218.156C475.731 229.795 468.498 240.534 459.981 250.108L448.288 238.414ZM156.903 156.903C171.297 156.903 185.472 160.328 198.194 166.824V180.626C198.194 195.392 195.395 209.726 190.062 223.033C182.514 212.858 170.438 206.452 156.903 206.452C134.136 206.452 115.613 224.974 115.613 247.742C115.613 262.281 123.309 275.263 134.921 282.632C128.99 285.579 122.805 288.025 116.431 289.899L82.527 299.871C71.7502 284.57 66.0645 266.666 66.0645 247.742C66.0645 197.654 106.815 156.903 156.903 156.903V156.903ZM26.5084 447.072L42.2978 440.533C44.3437 444.226 46.6994 447.723 49.3213 451L37.1799 463.141C33.0735 458.203 29.4895 452.819 26.5084 447.072ZM177.404 463.014L165.388 450.999C168.01 447.722 170.367 444.226 172.412 440.532L188.037 447.004C185.057 452.746 181.49 458.111 177.404 463.014V463.014ZM239.484 495.484C221.27 495.484 206.452 480.666 206.452 462.452C206.452 444.237 221.27 429.419 239.484 429.419C257.698 429.419 272.516 444.237 272.516 462.452C272.516 480.666 257.698 495.484 239.484 495.484ZM364.019 346.628C364.807 351.435 366.285 356.013 368.356 360.253L351.173 372.526L325.704 347.058C327.584 346.929 329.472 346.84 331.375 346.84H355.097C358.062 346.839 361.044 346.766 364.019 346.628ZM306.146 350.857L337.547 382.259L327.087 389.73L293.55 356.193C297.589 354.051 301.803 352.278 306.146 350.857V350.857ZM279.596 365.598L313.461 399.463L303.001 406.935L270.522 374.456C271.701 373.107 272.923 371.795 274.191 370.526C275.928 368.79 277.736 367.155 279.596 365.598ZM253.791 404.889C255.507 399.053 257.889 393.436 260.857 388.149L289.375 416.667L274.419 427.35C268.071 421.032 260.022 416.43 251.031 414.275L253.791 404.889ZM445.935 338.581C445.935 356.795 431.117 371.613 412.903 371.613C394.689 371.613 379.871 356.795 379.871 338.581C379.871 320.366 394.689 305.548 412.903 305.548C431.117 305.548 445.935 320.366 445.935 338.581ZM364.099 330.082C361.099 330.236 358.09 330.323 355.097 330.323H331.375C305.363 330.323 280.906 340.452 262.513 358.846C251.025 370.335 242.53 384.645 237.947 400.229L234.133 413.197C227.277 413.938 220.842 416.086 215.11 419.339L222.102 395.57C227.462 377.342 237.398 360.605 250.835 347.169C272.347 325.655 300.951 313.806 331.375 313.806H355.097C360.278 313.806 365.4 313.547 370.454 313.054C367.35 318.197 365.164 323.949 364.099 330.082Z" fill="white"/>
<path d="M247.742 437.677H231.226V454.194H214.71V470.71H231.226V487.226H247.742V470.71H264.258V454.194H247.742V437.677Z" fill="white"/>
<path d="M404.645 313.806V330.323H388.129V346.839H404.645V363.355H421.161V346.839H437.677V330.323H421.161V313.806H404.645Z" fill="white"/>
</svg>
