<svg width="512" height="512" viewBox="0 0 512 512" fill="none" xmlns="http://www.w3.org/2000/svg">
<g clip-path="url(#clip0_1_26)">
<path d="M297.29 464.161C178.903 464.161 82.5806 367.847 82.5806 249.451C82.5806 131.055 178.903 34.7417 297.29 34.7417C415.678 34.7417 512 131.055 512 249.451C512 367.847 415.678 464.161 297.29 464.161ZM297.29 109.064C219.879 109.064 156.903 172.04 156.903 249.451C156.903 326.862 219.879 389.838 297.29 389.838C374.701 389.838 437.677 326.862 437.677 249.451C437.677 172.04 374.701 109.064 297.29 109.064Z" fill="#F0BC5E"/>
<path d="M46.1213 133.83L93.696 181.405C95.6201 175.657 97.7507 170.009 100.137 164.492L69.4916 133.847L132.162 71.2754L152.221 91.3259C156.292 87.5933 160.528 84.0423 164.872 80.6235L132.162 47.9381L123.92 56.1631L99.0968 31.3228L29.6134 100.806L54.3876 125.58L46.1213 133.83ZM52.9672 100.806L99.0968 54.6767L112.244 67.8235L66.0728 113.912L52.9672 100.806Z" fill="white"/>
<path d="M214.767 447.645H66.0645V332.032H99.1215C96.8671 326.639 94.8439 321.123 93.0271 315.516H64.545C61.1262 305.928 52.0423 299 41.2903 299H24.7742C11.1154 299 0 310.115 0 323.774V455.903C0 469.562 11.1154 480.677 24.7742 480.677H41.2903C52.0423 480.677 61.1262 473.749 64.545 464.161H297.29C268.057 464.161 240.186 458.273 214.767 447.645V447.645ZM49.5484 455.903C49.5484 460.461 45.8405 464.161 41.2903 464.161H24.7742C20.224 464.161 16.5161 460.461 16.5161 455.903V323.774C16.5161 319.215 20.224 315.516 24.7742 315.516H41.2903C45.8405 315.516 49.5484 319.215 49.5484 323.774V455.903Z" fill="white"/>
<path d="M495.484 331.974V455.903C495.484 460.461 491.776 464.161 487.226 464.161H470.71C466.16 464.161 462.452 460.461 462.452 455.903V386.477C457.29 392.687 451.757 398.575 445.936 404.166V455.903C445.936 469.562 457.051 480.677 470.71 480.677H487.226C500.885 480.677 512 469.562 512 455.903V249.451C512 278.685 506.112 306.556 495.484 331.974Z" fill="white"/>
<path d="M297.29 100.806C215.329 100.806 148.645 167.49 148.645 249.451C148.645 331.413 215.329 398.097 297.29 398.097C379.252 398.097 445.935 331.413 445.935 249.451C445.935 167.49 379.252 100.806 297.29 100.806V100.806ZM420.013 200.778C407.701 222.993 386.106 237.915 362.694 240.607C361.076 228.592 356.245 217.6 349.06 208.533C364.808 189.498 371.745 163.906 368.483 138.323C391.573 153.162 409.732 174.955 420.013 200.778V200.778ZM297.29 299C269.964 299 247.742 276.777 247.742 249.451C247.742 222.125 269.964 199.903 297.29 199.903C324.616 199.903 346.839 222.125 346.839 249.451C346.839 276.777 324.616 299 297.29 299ZM349.63 128.182C356.658 152.634 351.934 178.498 337.259 196.971C328.109 189.985 317.126 185.319 305.135 183.891C302.807 159.29 289.586 136.167 269.196 120.386C278.255 118.412 287.637 117.314 297.282 117.314C315.879 117.322 333.568 121.228 349.63 128.182V128.182ZM248.609 126.737C270.823 139.049 285.746 160.644 288.446 184.056C276.43 185.674 265.447 190.505 256.372 197.69C237.328 181.942 211.728 174.997 186.162 178.259C201.01 155.169 222.794 137.01 248.609 126.737V126.737ZM176.021 197.112C200.473 190.076 226.329 194.808 244.81 209.474C237.824 218.624 233.158 229.607 231.73 241.598C207.129 243.927 184.006 257.148 168.225 277.537C166.26 268.478 165.161 259.097 165.161 249.451C165.161 230.862 169.067 213.174 176.021 197.112V197.112ZM174.567 298.124C186.88 275.91 208.475 260.996 231.886 258.296C233.505 270.311 238.336 281.303 245.521 290.37C229.772 309.405 222.836 334.997 226.098 360.58C203.008 345.74 184.848 323.947 174.567 298.124ZM244.951 370.721C237.923 346.269 242.647 320.405 257.321 301.931C266.471 308.918 277.454 313.584 289.445 315.012C291.774 339.613 304.995 362.735 325.384 378.517C316.325 380.49 306.944 381.589 297.299 381.589C278.701 381.58 261.013 377.683 244.951 370.721V370.721ZM345.972 372.174C323.757 359.862 308.835 338.267 306.135 314.855C318.084 313.245 329.018 308.455 338.069 301.329C354.048 314.558 374.71 321.652 396.073 321.652C400.145 321.652 404.24 321.321 408.328 320.801C393.488 343.816 371.728 361.918 345.972 372.174ZM418.56 301.791C394.116 308.827 368.252 304.095 349.77 289.429C356.757 280.279 361.422 269.296 362.851 257.305C387.452 254.976 410.574 241.755 426.356 221.366C428.321 230.425 429.419 239.806 429.419 249.451C429.419 268.04 425.522 285.729 418.56 301.791V301.791Z" fill="white"/>
<path d="M297.29 216.419C279.073 216.419 264.258 231.234 264.258 249.451C264.258 267.669 279.073 282.484 297.29 282.484C315.508 282.484 330.323 267.669 330.323 249.451C330.323 231.234 315.508 216.419 297.29 216.419ZM297.29 265.967C288.182 265.967 280.774 258.56 280.774 249.451C280.774 240.343 288.182 232.935 297.29 232.935C306.399 232.935 313.806 240.343 313.806 249.451C313.806 258.56 306.399 265.967 297.29 265.967Z" fill="white"/>
</g>
<defs>
<clipPath id="clip0_1_26">
<rect width="512" height="512" fill="white"/>
</clipPath>
</defs>
</svg>
